HIERARCHY
ROOT Pelvis
{
	OFFSET 0.000000 0.000000 0.000000
	CHANNELS 6 Xposition Yposition Zposition Xrotation Yrotation Zrotation
	JOINT LeftUpLeg_virtual
	{
		OFFSET 0.000000 0.000000 0.000000
		CHANNELS 3 Xrotation Yrotation Zrotation
		JOINT LeftUpLeg
		{
			OFFSET 8.479700 -4.795502 -0.379100
			CHANNELS 3 Xrotation Yrotation Zrotation
			JOINT LeftLeg
			{
				OFFSET 0.024144 -32.555107 0.112900
				CHANNELS 3 Xrotation Yrotation Zrotation
				JOINT LeftFoot
				{
					OFFSET -0.024144 -32.638630 -3.012600
					CHANNELS 3 Xrotation Yrotation Zrotation
					JOINT LeftToeBase
					{
						OFFSET 0.970200 -13.225400 11.864200
						CHANNELS 3 Xrotation Yrotation Zrotation
						End Site
						{
							OFFSET 0 0 0
						}
					}
				}
			}
		}
	}
	JOINT RightUpLeg_virtual
	{
		OFFSET 0.000000 0.000000 0.000000
		CHANNELS 3 Xrotation Yrotation Zrotation
		JOINT RightUpLeg
		{
			OFFSET -8.479700 -4.795502 -0.379100
			CHANNELS 3 Xrotation Yrotation Zrotation
			JOINT RightLeg
			{
				OFFSET -0.023144 -32.555092 0.112900
				CHANNELS 3 Xrotation Yrotation Zrotation
				JOINT RightFoot
				{
					OFFSET 0.023144 -32.638641 -3.012700
					CHANNELS 3 Xrotation Yrotation Zrotation
					JOINT RightToeBase
					{
						OFFSET -0.970200 -13.225400 11.864200
						CHANNELS 3 Xrotation Yrotation Zrotation
						End Site
						{
							OFFSET 0 0 0
						}
					}
				}
			}
		}
	}
	JOINT Hips_virtual
	{
		OFFSET 0.000000 0.000000 0.000000
		CHANNELS 3 Xrotation Yrotation Zrotation
		JOINT Hips
		{
			OFFSET -0.000000 -0.000000 -0.000000
			CHANNELS 3 Xrotation Yrotation Zrotation
			JOINT Spine
			{
				OFFSET 0.000000 7.722000 1.166200
				CHANNELS 3 Xrotation Yrotation Zrotation
				JOINT Spine1
				{
					OFFSET 0.000000 12.024101 0.248800
					CHANNELS 3 Xrotation Yrotation Zrotation
					JOINT Spine2
					{
						OFFSET 0.000000 11.502998 -0.491200
						CHANNELS 3 Xrotation Yrotation Zrotation
						JOINT Neck_virtual
						{
							OFFSET 0.000000 0.000000 0.000000
							CHANNELS 3 Xrotation Yrotation Zrotation
							JOINT Neck
							{
								OFFSET 0.000000 18.430702 -3.123100
								CHANNELS 3 Xrotation Yrotation Zrotation
								JOINT Head
								{
									OFFSET 0.000000 9.051102 1.034000
									CHANNELS 3 Xrotation Yrotation Zrotation
									End Site
									{
										OFFSET 0 0 0
									}
								}
							}
						}
						JOINT LeftShoulder_virtual
						{
							OFFSET 0.000000 0.000000 0.000000
							CHANNELS 3 Xrotation Yrotation Zrotation
							JOINT LeftShoulder
							{
								OFFSET 6.197800 13.665199 -4.064700
								CHANNELS 3 Xrotation Yrotation Zrotation
								JOINT LeftArm
								{
									OFFSET 7.778100 -0.187103 -1.709300
									CHANNELS 3 Xrotation Yrotation Zrotation
									JOINT LeftForeArm
									{
										OFFSET 22.049376 0.000000 0.000000
										CHANNELS 3 Xrotation Yrotation Zrotation
										JOINT LeftHand
										{
											OFFSET 23.009392 0.000000 0.000000
											CHANNELS 3 Xrotation Yrotation Zrotation
											End Site
											{
												OFFSET 0 0 0
											}
										}
									}
								}
							}
						}
						JOINT RightShoulder_virtual
						{
							OFFSET 0.000000 0.000000 0.000000
							CHANNELS 3 Xrotation Yrotation Zrotation
							JOINT RightShoulder
							{
								OFFSET -6.197800 13.665199 -4.064700
								CHANNELS 3 Xrotation Yrotation Zrotation
								JOINT RightArm
								{
									OFFSET -7.778100 -0.187103 -1.709300
									CHANNELS 3 Xrotation Yrotation Zrotation
									JOINT RightForeArm
									{
										OFFSET -22.049376 0.000000 0.000000
										CHANNELS 3 Xrotation Yrotation Zrotation
										JOINT RightHand
										{
											OFFSET -23.009392 0.000000 0.000000
											CHANNELS 3 Xrotation Yrotation Zrotation
											End Site
											{
												OFFSET 0 0 0
											}
										}
									}
								}
							}
						}
					}
				}
			}
		}
	}
}
MOTION
Frames: 13
Frame Time: 0.03333333
-0.271841 70.610138 0.107372 0.000000 0.000000 0.000000 -5.398748 -46.239377 -0.142887 -32.843497 7.601280 17.499517 59.220404 -6.566085 4.270680 -23.771700 -8.053167 -14.613722 0.000000 0.000000 0.000000 -5.398748 -46.239377 -0.142887 -25.065071 -10.545472 -28.270329 58.419878 -9.124095 -7.671458 -25.367428 -6.319695 22.025647 0.000000 0.000000 0.000000 -5.398748 -46.239377 -0.142887 0.000000 0.000000 0.000000 9.464575 7.182616 -1.715470 2.187715 0.989897 -0.915630 0.000000 0.000000 0.000000 2.202828 0.982777 -0.894154 0.084656 13.220553 4.538682 0.000000 0.000000 0.000000 2.202828 0.982777 -0.894154 1.117180 3.546345 -8.633310 -53.487010 4.935510 -51.503004 -179.999950 -73.641932 -179.999937 0.000000 0.000000 0.000000 2.202828 0.982777 -0.894154 3.036129 13.027194 -5.371405 -48.713725 27.172835 83.457098 -179.999882 74.011698 179.999896 0.000000 0.000000 0.000000 
-0.189716 70.343246 0.565451 0.000000 0.000000 0.000000 -5.081479 -46.519011 0.076171 -33.300755 7.531358 17.276728 60.535557 -6.388410 4.180057 -24.554131 -7.574501 -14.242539 0.000000 0.000000 0.000000 -5.081479 -46.519011 0.076171 -25.484539 -10.338489 -28.820021 58.873758 -8.317751 -7.618285 -25.530865 -6.685332 22.099772 0.000000 0.000000 0.000000 -5.081479 -46.519011 0.076171 0.000001 -0.000002 0.000000 9.688126 7.317299 -2.028588 2.062173 1.010600 -0.893727 0.000000 0.000000 0.000000 2.076816 1.004100 -0.874000 0.115997 13.237030 4.673037 0.000000 0.000000 0.000000 2.076816 1.004100 -0.874000 1.112658 3.581127 -8.635982 -53.210671 4.972775 -51.357234 179.999950 -73.632246 179.999937 0.000000 0.000000 0.000000 2.076816 1.004100 -0.874000 3.105122 13.142779 -5.328001 -48.727444 27.290299 83.461531 -179.999773 74.086297 179.999786 0.000000 0.000000 0.000000 
-0.099129 70.017265 1.055946 0.000000 0.000000 0.000000 -4.839387 -46.894023 0.259794 -33.859987 7.448244 17.132592 62.127729 -6.175263 4.057193 -25.265191 -7.236024 -13.966326 0.000000 0.000000 0.000000 -4.839387 -46.894023 0.259794 -25.996451 -10.133841 -29.457452 59.465123 -7.335744 -7.658958 -25.762835 -7.077247 22.165289 0.000000 0.000000 0.000000 -4.839387 -46.894023 0.259794 0.000000 -0.000001 0.000000 9.975884 7.448888 -2.276051 1.916820 1.031760 -0.894297 0.000000 0.000000 0.000000 1.931408 1.024999 -0.876844 0.148175 13.275056 4.803503 0.000000 0.000000 0.000000 1.931408 1.024999 -0.876844 1.110768 3.630403 -8.655380 -52.841769 5.112491 -51.141660 -179.999855 -73.431972 -179.999827 0.000000 0.000000 0.000000 1.931408 1.024999 -0.876844 3.169172 13.274910 -5.296752 -48.735746 27.444498 83.446183 -179.999937 74.154230 179.999937 0.000000 0.000000 0.000000 
0.005660 69.620171 1.593662 0.000000 0.000000 0.000000 -4.723373 -47.343094 0.384853 -34.602701 7.240435 17.142480 64.182106 -6.114460 3.914371 -25.806002 -6.914775 -14.335758 0.000000 0.000000 0.000000 -4.723373 -47.343094 0.384853 -26.542747 -9.897888 -30.200180 60.200994 -6.196690 -7.798726 -26.069758 -7.505293 22.257075 0.000000 0.000000 0.000000 -4.723373 -47.343094 0.384853 0.000000 0.000002 0.000000 10.332998 7.577343 -2.450425 1.751585 1.053336 -0.915970 0.000000 0.000000 0.000000 1.766520 1.045415 -0.901337 0.181824 13.330685 4.930964 0.000000 0.000000 0.000000 1.766520 1.045415 -0.901337 1.111786 3.693828 -8.692152 -52.361712 5.340840 -50.878318 -179.999896 -73.109471 -179.999882 0.000000 0.000000 0.000000 1.766520 1.045415 -0.901337 3.224299 13.415399 -5.279437 -48.718165 27.637157 83.417565 -179.999950 74.227750 179.999950 0.000000 0.000000 0.000000 
0.132985 69.141708 2.194283 0.000000 0.000000 0.000000 -4.761221 -47.846226 0.431344 -35.580166 6.902329 17.246965 66.765652 -6.139976 3.781258 -26.016481 -6.758857 -15.178154 0.000000 0.000000 0.000000 -4.761221 -47.846226 0.431344 -27.095866 -9.628977 -31.069472 61.077717 -4.892802 -8.049346 -26.450109 -7.974967 22.394510 0.000000 0.000000 0.000000 -4.761221 -47.846226 0.431344 0.000000 -0.000003 0.000000 10.900214 7.697411 -2.463140 1.532801 1.076090 -0.997167 0.000000 0.000000 0.000000 1.549265 1.064464 -0.986854 0.226158 13.411169 5.018146 0.000000 0.000000 0.000000 1.549265 1.064464 -0.986854 1.121900 3.790806 -8.776300 -51.604070 5.785273 -50.502883 -179.999950 -72.464790 -179.999964 0.000000 0.000000 0.000000 1.549265 1.064464 -0.986854 3.247805 13.568179 -5.304377 -48.562075 27.955831 83.361264 179.999786 74.257987 -179.999773 0.000000 0.000000 0.000000 
0.293137 68.572945 2.872097 0.000000 0.000000 0.000000 -4.957935 -48.390917 0.378243 -36.867698 6.368499 17.480788 69.909322 -6.320679 3.663836 -25.718456 -6.849884 -16.640906 0.000000 0.000000 0.000000 -4.957935 -48.390917 0.378243 -27.647716 -9.330923 -32.071812 62.084466 -3.419676 -8.417599 -26.889473 -8.488352 22.591722 0.000000 0.000000 0.000000 -4.957935 -48.390917 0.378243 0.000000 0.000000 0.000000 11.657256 7.844719 -2.363239 1.273220 1.104483 -1.097075 0.000000 0.000000 0.000000 1.291724 1.087424 -1.092371 0.274825 13.496288 5.103125 0.000000 0.000000 0.000000 1.291724 1.087424 -1.092371 1.143912 3.872147 -8.884223 -50.743330 6.363354 -50.123862 -179.999909 -71.804809 -179.999909 0.000000 0.000000 0.000000 1.291724 1.087424 -1.092371 3.213301 13.679423 -5.375498 -48.298511 28.360865 83.321293 -179.999773 74.331733 179.999773 0.000000 0.000000 0.000000 
0.492848 67.914207 3.634394 0.000000 0.000000 0.000000 -5.294655 -48.972180 0.222708 -38.484704 5.592469 17.891296 73.518681 -6.733342 3.544401 -24.722307 -7.316096 -18.836700 0.000000 0.000000 0.000000 -5.294655 -48.972180 0.222708 -28.202951 -9.000271 -33.201143 63.194932 -1.795007 -8.899806 -27.355527 -9.042021 22.856465 0.000000 0.000000 0.000000 -5.294655 -48.972180 0.222708 0.000000 -0.000001 0.000000 12.537523 8.026811 -2.164615 0.995852 1.138770 -1.199806 0.000000 0.000000 0.000000 1.016577 1.114866 -1.201558 0.302734 13.587379 5.199544 0.000000 0.000000 0.000000 1.016577 1.114866 -1.201558 1.177511 3.931808 -9.010045 -49.846331 7.032370 -49.753635 180.000005 -71.166978 -179.999991 0.000000 0.000000 0.000000 1.016577 1.114866 -1.201558 3.139971 13.746662 -5.470687 -48.025434 28.850518 83.319914 179.999882 74.486027 -179.999896 0.000000 0.000000 0.000000 
0.731971 67.177620 4.476934 0.000000 0.000000 0.000000 -5.735738 -49.589796 -0.020779 -40.384750 4.569491 18.526473 77.318431 -7.401252 3.384571 -22.847205 -8.331769 -21.732965 0.000000 0.000000 0.000000 -5.735738 -49.589796 -0.020779 -28.777428 -8.639076 -34.441847 64.369670 -0.049550 -9.484103 -27.806409 -9.627112 23.185456 0.000000 0.000000 0.000000 -5.735738 -49.589796 -0.020779 0.000000 0.000001 0.000000 13.493892 8.237014 -1.861473 0.711189 1.177403 -1.308891 0.000000 0.000000 0.000000 0.734357 1.145049 -1.317738 0.287129 13.694993 5.304677 0.000000 0.000000 0.000000 0.734357 1.145049 -1.317738 1.219937 3.992363 -9.161706 -48.866349 7.791490 -49.357689 180.000005 -70.472785 -179.999991 0.000000 0.000000 0.000000 0.734357 1.145049 -1.317738 3.056128 13.777706 -5.564835 -47.806475 29.460290 83.382990 -179.999650 74.733157 179.999663 0.000000 0.000000 0.000000 
1.025179 66.369598 5.432018 0.000000 0.000000 0.000000 -6.277658 -50.299415 -0.327065 -42.416991 3.471183 19.313705 81.120907 -8.102911 3.152843 -20.482955 -10.016755 -24.658656 0.000000 0.000000 0.000000 -6.277658 -50.299415 -0.327065 -29.354562 -8.120495 -35.936593 65.569529 1.862518 -9.951259 -28.191399 -10.156311 23.526877 0.000000 0.000000 0.000000 -6.277658 -50.299415 -0.327065 0.000000 0.000002 0.000000 14.466076 8.451890 -1.471872 0.424837 1.216736 -1.428608 0.000000 0.000000 0.000000 0.450686 1.174178 -1.444916 0.205578 13.834949 5.409458 0.000000 0.000000 0.000000 0.450686 1.174178 -1.444916 1.261342 4.095647 -9.344289 -47.712218 8.648746 -48.870383 179.999950 -69.606226 179.999964 0.000000 0.000000 0.000000 0.450686 1.174178 -1.444916 2.992454 13.783369 -5.631406 -47.719117 30.227938 83.551348 -179.999827 75.092999 179.999827 0.000000 0.000000 0.000000 
1.371861 65.537720 6.506710 0.000000 0.000000 0.000000 -6.770180 -51.224780 -0.619766 -44.478568 2.521520 20.180813 84.979048 -8.477219 2.840064 -18.767799 -12.151702 -26.321983 0.000000 0.000000 0.000000 -6.770180 -51.224780 -0.619766 -30.000247 -7.317498 -37.771424 66.656308 4.042959 -9.954413 -28.415624 -10.460528 23.722879 0.000000 0.000000 0.000000 -6.770180 -51.224780 -0.619766 0.000000 0.000000 0.000000 15.401166 8.627319 -1.051187 0.138681 1.250335 -1.559734 0.000000 0.000000 0.000000 0.167364 1.196237 -1.583492 0.037167 14.026444 5.497600 0.000000 0.000000 0.000000 0.167364 1.196237 -1.583492 1.282820 4.296603 -9.553092 -46.271981 9.652353 -48.192155 -179.999950 -68.364811 -179.999964 0.000000 0.000000 0.000000 0.167364 1.196237 -1.583492 2.963988 13.770113 -5.657467 -47.797718 31.193935 83.871035 -179.999937 75.567232 179.999937 0.000000 0.000000 0.000000 
1.745962 64.730736 7.677074 0.000000 0.000000 0.000000 -7.156941 -52.336878 -0.825532 -46.463588 1.704320 21.283390 88.395994 -8.747836 2.428742 -17.163425 -14.325323 -27.179992 0.000000 0.000000 0.000000 -7.156941 -52.336878 -0.825532 -30.736975 -6.402056 -39.664684 67.465938 6.331412 -9.956672 -28.383292 -10.701787 23.959919 0.000000 0.000000 0.000000 -7.156941 -52.336878 -0.825532 0.000000 0.000001 0.000000 16.263850 8.695387 -0.681500 -0.146075 1.269163 -1.694880 0.000000 0.000000 0.000000 -0.114769 1.203167 -1.725555 -0.234663 14.288835 5.546312 0.000000 0.000000 0.000000 -0.114769 1.203167 -1.725555 1.258248 4.648351 -9.768067 -44.491193 10.801620 -47.244074 179.999964 -66.706838 179.999950 0.000000 0.000000 0.000000 -0.114769 1.203167 -1.725555 2.956450 13.734565 -5.656084 -48.042509 32.407636 84.409930 -179.999691 76.127103 179.999691 0.000000 0.000000 0.000000 
2.130020 63.988083 8.915738 0.000000 0.000000 0.000000 -7.368767 -53.623556 -0.873864 -48.255806 1.071728 22.660392 91.155056 -8.907777 1.979312 -15.885405 -16.049678 -27.205678 0.000000 0.000000 0.000000 -7.368767 -53.623556 -0.873864 -31.528129 -5.363401 -41.607726 67.617438 7.120890 -9.953601 -27.914958 -9.493254 25.092776 0.000000 0.000000 0.000000 -7.368767 -53.623556 -0.873864 0.000000 0.000003 0.000000 17.036355 8.580849 -0.478539 -0.425672 1.262710 -1.809719 0.000000 0.000000 0.000000 -0.392750 1.186137 -1.846037 -0.616993 14.637427 5.530015 0.000000 0.000000 0.000000 -0.392750 1.186137 -1.846037 1.162558 5.180291 -9.953494 -42.494326 12.099106 -45.969618 179.999978 -64.691379 179.999964 0.000000 0.000000 0.000000 -0.392750 1.186137 -1.846037 2.924270 13.660313 -5.668343 -48.451904 33.874009 85.248978 179.999732 76.739771 -179.999745 0.000000 0.000000 0.000000 
2.511642 63.341522 10.197796 0.000000 0.000000 0.000000 -7.358255 -55.041141 -0.717739 -49.759267 0.627332 24.310018 93.075425 -8.976510 1.581341 -15.063922 -16.924666 -26.543491 0.000000 0.000000 0.000000 -7.358255 -55.041141 -0.717739 -32.377252 -4.276810 -43.476565 67.242577 7.325029 -9.947921 -27.156718 -7.677651 26.545033 0.000000 0.000000 0.000000 -7.358255 -55.041141 -0.717739 -0.000000 -0.000001 -0.000001 17.694942 8.213816 -0.537948 -0.685953 1.220955 -1.871342 0.000000 0.000000 0.000000 -0.653373 1.137078 -1.911024 -1.101321 15.078329 5.426785 0.000000 0.000000 0.000000 -0.653373 1.137078 -1.911024 0.985289 5.876799 -10.065045 -40.552387 13.547009 -44.357161 -179.999964 -62.549534 -179.999964 0.000000 0.000000 0.000000 -0.653373 1.137078 -1.911024 2.803017 13.517550 -5.753012 -48.960104 35.579678 86.428995 179.999718 77.363743 -179.999732 0.000000 0.000000 0.000000 
